<svg id="visual" viewBox="0 0 2200 100" width="2200" height="100" xmlns="http://www.w3.org/2000/svg" xmlns:xlink="http://www.w3.org/1999/xlink" version="1.1"><path d="M0 29L26.2 31.2C52.3 33.3 104.7 37.7 157 35.3C209.3 33 261.7 24 314 24.2C366.3 24.3 418.7 33.7 471.2 35.3C523.7 37 576.3 31 628.8 26.7C681.3 22.3 733.7 19.7 786 17.8C838.3 16 890.7 15 943 16.7C995.3 18.3 1047.7 22.7 1100 27.5C1152.3 32.3 1204.7 37.7 1257 38.2C1309.3 38.7 1361.7 34.3 1414 30.2C1466.3 26 1518.7 22 1571.2 20.5C1623.7 19 1676.3 20 1728.8 21.5C1781.3 23 1833.7 25 1886 26.5C1938.3 28 1990.7 29 2043 26.8C2095.3 24.7 2147.7 19.3 2173.8 16.7L2200 14L2200 101L2173.8 101C2147.7 101 2095.3 101 2043 101C1990.7 101 1938.3 101 1886 101C1833.7 101 1781.3 101 1728.8 101C1676.3 101 1623.7 101 1571.2 101C1518.7 101 1466.3 101 1414 101C1361.7 101 1309.3 101 1257 101C1204.7 101 1152.3 101 1100 101C1047.7 101 995.3 101 943 101C890.7 101 838.3 101 786 101C733.7 101 681.3 101 628.8 101C576.3 101 523.7 101 471.2 101C418.7 101 366.3 101 314 101C261.7 101 209.3 101 157 101C104.7 101 52.3 101 26.2 101L0 101Z" fill="#fa867d"></path><path d="M0 50L26.2 49.5C52.3 49 104.7 48 157 48.7C209.3 49.3 261.7 51.7 314 50.7C366.3 49.7 418.7 45.3 471.2 41.5C523.7 37.7 576.3 34.3 628.8 33.7C681.3 33 733.7 35 786 36C838.3 37 890.7 37 943 35.8C995.3 34.7 1047.7 32.3 1100 31.8C1152.3 31.3 1204.7 32.7 1257 37.5C1309.3 42.3 1361.7 50.7 1414 53.2C1466.3 55.7 1518.7 52.3 1571.2 48.7C1623.7 45 1676.3 41 1728.8 42C1781.3 43 1833.7 49 1886 47.8C1938.3 46.7 1990.7 38.3 2043 33.8C2095.3 29.3 2147.7 28.7 2173.8 28.3L2200 28L2200 101L2173.8 101C2147.7 101 2095.3 101 2043 101C1990.7 101 1938.3 101 1886 101C1833.7 101 1781.3 101 1728.8 101C1676.3 101 1623.7 101 1571.2 101C1518.7 101 1466.3 101 1414 101C1361.7 101 1309.3 101 1257 101C1204.7 101 1152.3 101 1100 101C1047.7 101 995.3 101 943 101C890.7 101 838.3 101 786 101C733.7 101 681.3 101 628.8 101C576.3 101 523.7 101 471.2 101C418.7 101 366.3 101 314 101C261.7 101 209.3 101 157 101C104.7 101 52.3 101 26.2 101L0 101Z" fill="#bc6181"></path><path d="M0 53L26.2 53.2C52.3 53.3 104.7 53.7 157 52.8C209.3 52 261.7 50 314 50.3C366.3 50.7 418.7 53.3 471.2 55C523.7 56.7 576.3 57.3 628.8 55.7C681.3 54 733.7 50 786 49.3C838.3 48.7 890.7 51.3 943 51.8C995.3 52.3 1047.7 50.7 1100 50.2C1152.3 49.7 1204.7 50.3 1257 54C1309.3 57.7 1361.7 64.3 1414 67.2C1466.3 70 1518.7 69 1571.2 66.3C1623.7 63.7 1676.3 59.3 1728.8 58.8C1781.3 58.3 1833.7 61.7 1886 62.8C1938.3 64 1990.7 63 2043 59.8C2095.3 56.7 2147.7 51.3 2173.8 48.7L2200 46L2200 101L2173.8 101C2147.7 101 2095.3 101 2043 101C1990.7 101 1938.3 101 1886 101C1833.7 101 1781.3 101 1728.8 101C1676.3 101 1623.7 101 1571.2 101C1518.7 101 1466.3 101 1414 101C1361.7 101 1309.3 101 1257 101C1204.7 101 1152.3 101 1100 101C1047.7 101 995.3 101 943 101C890.7 101 838.3 101 786 101C733.7 101 681.3 101 628.8 101C576.3 101 523.7 101 471.2 101C418.7 101 366.3 101 314 101C261.7 101 209.3 101 157 101C104.7 101 52.3 101 26.2 101L0 101Z" fill="#724872"></path><path d="M0 61L26.2 62.3C52.3 63.7 104.7 66.3 157 69C209.3 71.7 261.7 74.3 314 75C366.3 75.7 418.7 74.3 471.2 72.5C523.7 70.7 576.3 68.3 628.8 67.3C681.3 66.3 733.7 66.7 786 66.2C838.3 65.7 890.7 64.3 943 66.2C995.3 68 1047.7 73 1100 72.7C1152.3 72.3 1204.7 66.7 1257 64C1309.3 61.3 1361.7 61.7 1414 61.7C1466.3 61.7 1518.7 61.3 1571.2 61.5C1623.7 61.7 1676.3 62.3 1728.8 62.3C1781.3 62.3 1833.7 61.7 1886 64.3C1938.3 67 1990.7 73 2043 73.5C2095.3 74 2147.7 69 2173.8 66.5L2200 64L2200 101L2173.8 101C2147.7 101 2095.3 101 2043 101C1990.7 101 1938.3 101 1886 101C1833.7 101 1781.3 101 1728.8 101C1676.3 101 1623.7 101 1571.2 101C1518.7 101 1466.3 101 1414 101C1361.7 101 1309.3 101 1257 101C1204.7 101 1152.3 101 1100 101C1047.7 101 995.3 101 943 101C890.7 101 838.3 101 786 101C733.7 101 681.3 101 628.8 101C576.3 101 523.7 101 471.2 101C418.7 101 366.3 101 314 101C261.7 101 209.3 101 157 101C104.7 101 52.3 101 26.2 101L0 101Z" fill="#2f2f4e"></path><path d="M0 84L26.2 82.7C52.3 81.3 104.7 78.7 157 76.8C209.3 75 261.7 74 314 76.8C366.3 79.7 418.7 86.3 471.2 89.5C523.7 92.7 576.3 92.3 628.8 91.7C681.3 91 733.7 90 786 88C838.3 86 890.7 83 943 81.7C995.3 80.3 1047.7 80.7 1100 81.3C1152.3 82 1204.7 83 1257 82.5C1309.3 82 1361.7 80 1414 79.5C1466.3 79 1518.7 80 1571.2 79.5C1623.7 79 1676.3 77 1728.8 77C1781.3 77 1833.7 79 1886 80.5C1938.3 82 1990.7 83 2043 84.2C2095.3 85.3 2147.7 86.7 2173.8 87.3L2200 88L2200 101L2173.8 101C2147.7 101 2095.3 101 2043 101C1990.7 101 1938.3 101 1886 101C1833.7 101 1781.3 101 1728.8 101C1676.3 101 1623.7 101 1571.2 101C1518.7 101 1466.3 101 1414 101C1361.7 101 1309.3 101 1257 101C1204.7 101 1152.3 101 1100 101C1047.7 101 995.3 101 943 101C890.7 101 838.3 101 786 101C733.7 101 681.3 101 628.8 101C576.3 101 523.7 101 471.2 101C418.7 101 366.3 101 314 101C261.7 101 209.3 101 157 101C104.7 101 52.3 101 26.2 101L0 101Z" fill="#001220"></path></svg>