<?xml version="1.0" standalone="no"?>
<!DOCTYPE svg PUBLIC "-//W3C//DTD SVG 20010904//EN"
 "http://www.w3.org/TR/2001/REC-SVG-20010904/DTD/svg10.dtd">
<svg version="1.0" xmlns="http://www.w3.org/2000/svg"
 width="261.000000pt" height="261.000000pt" viewBox="0 0 261.000000 261.000000"
 preserveAspectRatio="xMidYMid meet">
<metadata>
Created by potrace 1.14, written by Peter Selinger 2001-2017
</metadata>
<g transform="translate(0.000000,261.000000) scale(0.100000,-0.100000)"
fill="#000000" stroke="none">
<path d="M1136 2599 c-288 -40 -546 -168 -751 -374 -189 -189 -305 -406 -362
-675 -24 -116 -24 -361 0 -483 104 -522 495 -918 1022 -1034 113 -24 334 -29
456 -8 564 93 993 521 1085 1080 21 129 14 361 -15 485 -116 504 -517 894
-1021 995 -95 19 -324 27 -414 14z m370 -624 c12 -3 24 -10 26 -17 2 -7 -52
-310 -121 -672 -90 -473 -130 -661 -141 -668 -9 -6 -48 -2 -105 9 -74 16 -90
22 -93 38 -4 34 246 1327 258 1335 10 6 101 -7 176 -25z m-629 -87 c35 -34 63
-69 63 -78 0 -8 -108 -123 -240 -255 -132 -132 -240 -244 -240 -250 0 -6 108
-118 240 -250 132 -132 240 -244 240 -250 0 -13 -132 -145 -145 -145 -20 0
-625 615 -630 640 -4 22 36 66 308 338 171 171 319 312 327 312 8 0 43 -28 77
-62z m1255 -245 c241 -241 308 -313 308 -333 0 -20 -69 -94 -314 -339 -272
-272 -316 -312 -332 -303 -23 12 -134 127 -134 139 0 4 110 118 245 253 l245
245 -245 245 c-135 135 -245 250 -245 255 0 16 133 145 150 145 8 0 153 -138
322 -307z"/>
</g>
</svg>
